<svg width="33" height="27" viewBox="0 0 33 27" fill="none" xmlns="http://www.w3.org/2000/svg">
<path d="M26.7628 12.9031C30.1448 12.9031 33 9.98209 33 6.45154C33 2.92099 30.1817 0 26.7628 0C23.3563 0 20.5377 2.92099 20.5377 6.45154C20.5377 10.0075 23.3563 12.9031 26.7628 12.9031ZM9.96252 20.8278H24.263C24.7408 20.8278 25.1574 20.4214 25.1574 19.8754C25.1574 19.3293 24.7408 18.9228 24.263 18.9228H10.1708C9.47235 18.9228 9.04347 18.4148 8.93316 17.6402L8.74936 16.3067H24.2876C25.562 16.3067 26.3829 15.7478 26.8487 14.6557C25.7946 14.6557 24.802 14.4398 23.883 14.0207C23.6994 14.2747 23.4664 14.389 23.1234 14.389L8.4675 14.4017L7.42594 7.03576H18.8957C18.8345 6.45154 18.8712 5.68953 18.957 5.11808H7.15634L6.93577 3.50521C6.80101 2.52725 6.47012 2.03201 5.22025 2.03201H0.906793C0.416625 2.03201 0 2.4765 0 2.9845C0 3.50521 0.416625 3.94969 0.906793 3.94969H5.04865L7.00932 17.8942C7.2666 19.6975 8.18571 20.8278 9.96252 20.8278ZM10.9306 27C12.0335 27 12.9157 26.0983 12.9157 24.9426C12.9157 23.7996 12.0335 22.8852 10.9306 22.8852C9.81544 22.8852 8.94542 23.7996 8.94542 24.9426C8.94542 26.0983 9.81544 27 10.9306 27ZM22.4003 27C23.5033 27 24.3855 26.0983 24.3855 24.9426C24.3855 23.7996 23.5033 22.8852 22.4003 22.8852C21.2852 22.8852 20.3907 23.7996 20.3907 24.9426C20.3907 26.0983 21.2852 27 22.4003 27Z" fill="white"/>
</svg>
