<svg width="24" height="21" viewBox="0 0 24 21" fill="none" xmlns="http://www.w3.org/2000/svg">
<path d="M12 2.78748C9.62215 0.724453 6.95827 0.434881 4.78636 1.41984C2.507 2.45352 0.922789 4.83033 0.876062 7.57812H0.875V7.70312V7.82812H0.875801C0.910244 10.5121 2.05215 12.5669 3.53328 14.2215C4.73517 15.5642 6.20739 16.6887 7.49755 17.6742C7.78865 17.8965 8.07048 18.1118 8.33785 18.3209C8.33822 18.3212 8.33859 18.3215 8.33895 18.3218C8.34171 18.3239 8.34447 18.3261 8.34722 18.3282L8.43666 18.3982L8.43669 18.3982C8.93258 18.7853 9.46724 19.1943 10.0103 19.5091C10.5562 19.8255 11.186 20.093 11.875 20.1223V20.125H12H12.125V20.1223C12.814 20.093 13.4438 19.8255 13.9897 19.5091C14.5328 19.1943 15.0674 18.7853 15.5633 18.3982L15.5634 18.3982L15.6611 18.3218C15.6638 18.3196 15.6666 18.3175 15.6693 18.3153C15.9347 18.1079 16.2142 17.8944 16.5028 17.6739C17.7929 16.6885 19.265 15.564 20.4667 14.2215C21.9479 12.5669 23.0898 10.5121 23.1242 7.82812H23.125V7.70312V7.57812H23.1239C23.0772 4.83033 21.493 2.45352 19.2136 1.41983C17.0417 0.434881 14.3779 0.724453 12 2.78748ZM5.52772 3.03247C7.12308 2.30898 9.28341 2.489 11.3569 4.626C11.357 4.62615 11.3572 4.62631 11.3573 4.62646C11.3575 4.62662 11.3576 4.62677 11.3578 4.62693L11.4437 4.71546L11.45 4.70946C11.6061 4.83084 11.7995 4.89781 12 4.89781C12.2005 4.89781 12.3939 4.83084 12.55 4.70946L12.5563 4.71546L12.6427 4.62646C12.6433 4.62583 12.6439 4.6252 12.6445 4.62457C14.7175 2.48892 16.8772 2.30914 18.4722 3.03247C20.1236 3.78136 21.3401 5.56695 21.3401 7.70312C21.3401 9.89459 20.4379 11.5856 19.1328 13.0436C18.0543 14.2484 16.7501 15.2461 15.4675 16.2272C15.1948 16.4358 14.923 16.6437 14.6546 16.8527L14.6546 16.8525L14.561 16.9257C14.5596 16.9268 14.5582 16.9279 14.5569 16.929C14.0173 17.3509 13.544 17.7148 13.0899 17.978L13.0899 17.978C12.6356 18.2415 12.2853 18.3522 12 18.3522C11.7147 18.3522 11.3644 18.2415 10.9101 17.978L10.9101 17.978C10.4579 17.7159 9.98658 17.3539 9.44991 16.9342C9.44767 16.9325 9.44543 16.9307 9.4432 16.929L9.34549 16.8525L9.3454 16.8527C9.07707 16.6438 8.80539 16.4359 8.53275 16.2274C7.24999 15.2462 5.94573 14.2485 4.8672 13.0436C3.56215 11.5856 2.65988 9.89459 2.65988 7.70312C2.65988 5.56694 3.87635 3.78136 5.52772 3.03247Z" fill="white" stroke="white" stroke-width="0.25"/>
</svg>
